<svg xmlns="http://www.w3.org/2000/svg" viewBox="0 0 200 200" role="img" aria-label="FairCharity">
  <!-- brushed teal ring + disc -->
  <circle cx="100" cy="100" r="93" fill="none" stroke="#44a2bb" stroke-width="6" stroke-linecap="round" stroke-dasharray="120 16 70 22 150 18" opacity=".55"/>
  <circle cx="100" cy="100" r="82" fill="#44a2bb"/>
  <!-- heart -->
  <path d="M100 56 C96 49 87 49 87 56 C87 62 95 66 100 70 C105 66 113 62 113 56 C113 49 104 49 100 56 Z" fill="#ffffff"/>
  <!-- figures (white) -->
  <g fill="none" stroke="#ffffff" stroke-width="10" stroke-linecap="round" stroke-linejoin="round">
    <!-- left child -->
    <path d="M79 86 L79 116"/>
    <path d="M79 94 L97 68"/>
    <path d="M79 94 L59 80"/>
    <path d="M79 116 L66 142"/>
    <path d="M79 116 L90 140"/>
    <!-- right child -->
    <path d="M121 82 L121 114"/>
    <path d="M121 90 L103 66"/>
    <path d="M121 90 L140 76"/>
    <path d="M121 114 L110 140"/>
    <path d="M121 114 L134 138"/>
  </g>
  <circle cx="70" cy="72" r="4.6" fill="#ffffff"/>
  <circle cx="79" cy="74" r="11" fill="#ffffff"/>
  <circle cx="121" cy="70" r="11" fill="#ffffff"/>
</svg>
